<svg xmlns="http://www.w3.org/2000/svg" width="343" height="90" viewBox="0 0 3443 1100">
  <g id="Gruppe_396" data-name="Gruppe 396" transform="translate(-82 76)">
    <path id="Pfad_854" data-name="Pfad 854" d="M-5.463,22.82S54.844-98.34,110.344-98.34,222.3,13.162,222.3,13.162" transform="translate(280.5 460.5)" fill="none" stroke="#fff" stroke-linecap="round" stroke-width="17"/>
    <path id="Pfad_853" data-name="Pfad 853" d="M0-149.11V295.207" transform="translate(731 381.11)" fill="none" stroke="#fff" stroke-linecap="round" stroke-width="18"/>
    <path id="Differenzmenge_1" data-name="Differenzmenge 1" d="M75,154a72.862,72.862,0,0,1-29.193-6.051,74.414,74.414,0,0,1-12.74-7.1,76.009,76.009,0,0,1-11.1-9.4A77.268,77.268,0,0,1,5.894,106.972a78.468,78.468,0,0,1,6.915-73.023,77.153,77.153,0,0,1,9.158-11.4,76.008,76.008,0,0,1,11.1-9.4,74.415,74.415,0,0,1,12.74-7.1,73.447,73.447,0,0,1,58.387,0,74.414,74.414,0,0,1,12.74,7.1,76.008,76.008,0,0,1,11.1,9.4,77.27,77.27,0,0,1,16.073,24.476,78.469,78.469,0,0,1-6.915,73.023,77.149,77.149,0,0,1-9.158,11.4,76.009,76.009,0,0,1-11.1,9.4,74.415,74.415,0,0,1-12.74,7.1A72.863,72.863,0,0,1,75,154ZM75,19a50.484,50.484,0,0,0-21.019,4.558,52.949,52.949,0,0,0-9.173,5.348,55.437,55.437,0,0,0-7.992,7.082,57.733,57.733,0,0,0-6.594,8.584,59.483,59.483,0,0,0-4.979,9.852,62.175,62.175,0,0,0,0,45.152,59.48,59.48,0,0,0,4.979,9.852,57.734,57.734,0,0,0,6.594,8.584,55.439,55.439,0,0,0,7.992,7.082,52.949,52.949,0,0,0,9.173,5.348,50.745,50.745,0,0,0,42.039,0,52.95,52.95,0,0,0,9.173-5.348,55.441,55.441,0,0,0,7.992-7.082,57.731,57.731,0,0,0,6.594-8.584,59.477,59.477,0,0,0,4.979-9.852,62.175,62.175,0,0,0,0-45.152,59.48,59.48,0,0,0-4.979-9.852,57.73,57.73,0,0,0-6.594-8.584,55.439,55.439,0,0,0-7.992-7.082,52.951,52.951,0,0,0-9.173-5.348A50.484,50.484,0,0,0,75,19Z" transform="translate(82 57)" fill="#fff"/>
    <path id="Differenzmenge_2" data-name="Differenzmenge 2" d="M75,154a72.862,72.862,0,0,1-29.193-6.051,74.414,74.414,0,0,1-12.74-7.1,76.009,76.009,0,0,1-11.1-9.4A77.268,77.268,0,0,1,5.894,106.972a78.468,78.468,0,0,1,6.915-73.023,77.153,77.153,0,0,1,9.158-11.4,76.008,76.008,0,0,1,11.1-9.4,74.415,74.415,0,0,1,12.74-7.1,73.447,73.447,0,0,1,58.387,0,74.414,74.414,0,0,1,12.74,7.1,76.008,76.008,0,0,1,11.1,9.4,77.27,77.27,0,0,1,16.073,24.476,78.469,78.469,0,0,1-6.915,73.023,77.149,77.149,0,0,1-9.158,11.4,76.009,76.009,0,0,1-11.1,9.4,74.415,74.415,0,0,1-12.74,7.1A72.863,72.863,0,0,1,75,154ZM75,19a52.223,52.223,0,0,0-21.408,4.558,54.175,54.175,0,0,0-9.343,5.348,56.15,56.15,0,0,0-8.14,7.082,57.871,57.871,0,0,0-6.716,8.584,59.07,59.07,0,0,0-5.071,9.852,61.121,61.121,0,0,0,0,45.152,59.07,59.07,0,0,0,5.071,9.852,57.87,57.87,0,0,0,6.716,8.584,56.152,56.152,0,0,0,8.14,7.082,54.175,54.175,0,0,0,9.343,5.348,52.556,52.556,0,0,0,42.817,0,54.176,54.176,0,0,0,9.343-5.348,56.15,56.15,0,0,0,8.14-7.082,57.869,57.869,0,0,0,6.716-8.584,59.07,59.07,0,0,0,5.071-9.852,61.123,61.123,0,0,0,0-45.152,59.068,59.068,0,0,0-5.071-9.852,57.869,57.869,0,0,0-6.716-8.584,56.151,56.151,0,0,0-8.14-7.082,54.173,54.173,0,0,0-9.343-5.348A52.225,52.225,0,0,0,75,19Z" transform="translate(314 188)" fill="#fff"/>
    <path id="Differenzmenge_4" data-name="Differenzmenge 4" d="M75,154a72.861,72.861,0,0,1-29.193-6.051,74.415,74.415,0,0,1-12.74-7.1,76.006,76.006,0,0,1-11.1-9.4A77.268,77.268,0,0,1,5.894,106.972a78.469,78.469,0,0,1,6.915-73.023,77.151,77.151,0,0,1,9.158-11.4,76.007,76.007,0,0,1,11.1-9.4,74.416,74.416,0,0,1,12.74-7.1,73.446,73.446,0,0,1,58.387,0,74.417,74.417,0,0,1,12.74,7.1,76.006,76.006,0,0,1,11.1,9.4,77.269,77.269,0,0,1,16.073,24.476,78.468,78.468,0,0,1-6.915,73.023,77.149,77.149,0,0,1-9.158,11.4,76.007,76.007,0,0,1-11.1,9.4,74.418,74.418,0,0,1-12.74,7.1A72.864,72.864,0,0,1,75,154ZM75,21A52.01,52.01,0,0,0,53.98,25.4a53.425,53.425,0,0,0-9.173,5.163A54.866,54.866,0,0,0,36.816,37.4a56.015,56.015,0,0,0-6.594,8.288A56.694,56.694,0,0,0,25.243,55.2a58.106,58.106,0,0,0,0,43.6,56.692,56.692,0,0,0,4.979,9.512,56.016,56.016,0,0,0,6.594,8.288,54.871,54.871,0,0,0,7.992,6.838A53.429,53.429,0,0,0,53.98,128.6a52.4,52.4,0,0,0,42.038,0,53.428,53.428,0,0,0,9.173-5.163,54.869,54.869,0,0,0,7.992-6.838,56.014,56.014,0,0,0,6.594-8.288,56.689,56.689,0,0,0,4.979-9.512,58.106,58.106,0,0,0,0-43.6,56.691,56.691,0,0,0-4.979-9.513,56.013,56.013,0,0,0-6.594-8.288,54.868,54.868,0,0,0-7.992-6.838A53.425,53.425,0,0,0,96.019,25.4,52.01,52.01,0,0,0,75,21Z" transform="translate(82 704)" fill="#fff"/>
    <path id="Differenzmenge_3" data-name="Differenzmenge 3" d="M75,154a72.862,72.862,0,0,1-29.193-6.051,74.414,74.414,0,0,1-12.74-7.1,76.009,76.009,0,0,1-11.1-9.4A77.268,77.268,0,0,1,5.894,106.972a78.468,78.468,0,0,1,6.915-73.023,77.153,77.153,0,0,1,9.158-11.4,76.008,76.008,0,0,1,11.1-9.4,74.415,74.415,0,0,1,12.74-7.1,73.447,73.447,0,0,1,58.387,0,74.414,74.414,0,0,1,12.74,7.1,76.008,76.008,0,0,1,11.1,9.4,77.27,77.27,0,0,1,16.073,24.476,78.469,78.469,0,0,1-6.915,73.023,77.149,77.149,0,0,1-9.158,11.4,76.009,76.009,0,0,1-11.1,9.4,74.415,74.415,0,0,1-12.74,7.1A72.863,72.863,0,0,1,75,154ZM75,21a53.813,53.813,0,0,0-21.408,4.4,54.705,54.705,0,0,0-9.343,5.163,55.626,55.626,0,0,0-8.14,6.838,56.565,56.565,0,0,0,0,79.2,55.628,55.628,0,0,0,8.14,6.838,54.706,54.706,0,0,0,9.343,5.163,54.273,54.273,0,0,0,42.817,0,54.707,54.707,0,0,0,9.343-5.163,55.625,55.625,0,0,0,8.14-6.838,56.566,56.566,0,0,0,0-79.2,55.623,55.623,0,0,0-8.14-6.838A54.705,54.705,0,0,0,96.409,25.4,53.814,53.814,0,0,0,75,21Z" transform="translate(656 693)" fill="#fff"/>
    <path id="Pfad_2" data-name="Pfad 2" d="M-8.871-170.09S-25.552-5.421-135.283,122.982-447.8,343.524-447.8,343.524" transform="translate(677.63 377.11)" fill="none" stroke="#fff" stroke-linecap="round" stroke-width="18"/>
    <path id="Pfad_855" data-name="Pfad 855" d="M1,0" transform="translate(195.5 225)" fill="none" stroke="#fff" stroke-linecap="round" stroke-width="18"/>
    <path id="Differenzmenge_6" data-name="Differenzmenge 6" d="M42.5,467A208.071,208.071,0,0,1,.681,462.764a205.729,205.729,0,0,1-38.95-12.149,207.21,207.21,0,0,1-35.247-19.224,209.206,209.206,0,0,1-30.709-25.46,209.781,209.781,0,0,1-25.338-30.857,208.844,208.844,0,0,1-19.131-35.417,208.184,208.184,0,0,1-12.091-39.138,211.528,211.528,0,0,1,0-84.04,208.182,208.182,0,0,1,12.091-39.137,208.84,208.84,0,0,1,19.131-35.417,209.786,209.786,0,0,1,25.338-30.857,209.216,209.216,0,0,1,30.709-25.46A207.211,207.211,0,0,1-38.268,66.385,205.727,205.727,0,0,1,.681,54.236a208.54,208.54,0,0,1,83.637,0,205.736,205.736,0,0,1,38.95,12.149,207.211,207.211,0,0,1,35.247,19.223,209.223,209.223,0,0,1,30.709,25.46,209.787,209.787,0,0,1,25.338,30.857,208.836,208.836,0,0,1,19.131,35.417,208.187,208.187,0,0,1,12.091,39.137,211.528,211.528,0,0,1,0,84.04,208.186,208.186,0,0,1-12.091,39.138,208.845,208.845,0,0,1-19.131,35.417,209.781,209.781,0,0,1-25.338,30.857,209.211,209.211,0,0,1-30.709,25.46,207.212,207.212,0,0,1-35.247,19.224,205.734,205.734,0,0,1-38.95,12.149A208.074,208.074,0,0,1,42.5,467Zm0-399.976a190.881,190.881,0,0,0-38.384,3.89A188.765,188.765,0,0,0-31.636,82.071,190.17,190.17,0,0,0-63.988,99.725a192.056,192.056,0,0,0-28.188,23.381,192.637,192.637,0,0,0-23.257,28.338,191.815,191.815,0,0,0-17.56,32.525,191.256,191.256,0,0,0-11.1,35.942,194.35,194.35,0,0,0,0,77.178,191.256,191.256,0,0,0,11.1,35.942,191.815,191.815,0,0,0,17.56,32.525,192.639,192.639,0,0,0,23.257,28.338,192.051,192.051,0,0,0,28.188,23.381,190.162,190.162,0,0,0,32.352,17.654A188.763,188.763,0,0,0,4.116,446.086a191.316,191.316,0,0,0,76.768,0,188.764,188.764,0,0,0,35.751-11.157,190.16,190.16,0,0,0,32.352-17.654,192.05,192.05,0,0,0,28.188-23.381,192.638,192.638,0,0,0,23.257-28.338,191.813,191.813,0,0,0,17.56-32.525,191.251,191.251,0,0,0,11.1-35.942,194.353,194.353,0,0,0,0-77.178,191.255,191.255,0,0,0-11.1-35.942,191.814,191.814,0,0,0-17.56-32.525,192.638,192.638,0,0,0-23.257-28.338,192.051,192.051,0,0,0-28.188-23.381,190.167,190.167,0,0,0-32.352-17.654A188.765,188.765,0,0,0,80.884,70.914,190.883,190.883,0,0,0,42.5,67.024Z" transform="translate(346 63)" fill="#fff"/>
    <path id="Pfad_5" data-name="Pfad 5" d="M0-149.11V305.437" transform="translate(157 381.11)" fill="none" stroke="#fff" stroke-linecap="round" stroke-width="18"/>
    <path id="Differenzmenge_7" data-name="Differenzmenge 7" d="M75,154a72.862,72.862,0,0,1-29.193-6.051,74.414,74.414,0,0,1-12.74-7.1,76.009,76.009,0,0,1-11.1-9.4A77.268,77.268,0,0,1,5.894,106.972a78.468,78.468,0,0,1,6.915-73.023,77.153,77.153,0,0,1,9.158-11.4,76.008,76.008,0,0,1,11.1-9.4,74.415,74.415,0,0,1,12.74-7.1,73.447,73.447,0,0,1,58.387,0,74.414,74.414,0,0,1,12.74,7.1,76.008,76.008,0,0,1,11.1,9.4,77.27,77.27,0,0,1,16.073,24.476,78.469,78.469,0,0,1-6.915,73.023,77.149,77.149,0,0,1-9.158,11.4,76.009,76.009,0,0,1-11.1,9.4,74.415,74.415,0,0,1-12.74,7.1A72.863,72.863,0,0,1,75,154ZM75,21a53.813,53.813,0,0,0-21.408,4.4,54.705,54.705,0,0,0-9.343,5.163,55.626,55.626,0,0,0-8.14,6.838,56.565,56.565,0,0,0,0,79.2,55.628,55.628,0,0,0,8.14,6.838,54.706,54.706,0,0,0,9.343,5.163,54.273,54.273,0,0,0,42.817,0,54.707,54.707,0,0,0,9.343-5.163,55.625,55.625,0,0,0,8.14-6.838,56.566,56.566,0,0,0,0-79.2,55.623,55.623,0,0,0-8.14-6.838A54.705,54.705,0,0,0,96.409,25.4,53.814,53.814,0,0,0,75,21Z" transform="translate(656 57)" fill="#fff"/>
  </g>
  <text id="Paradigma_Indie" data-name="Paradigma 
Indie" transform="translate(792 478)" fill="#fff" font-size="476" font-family="Pragmatica-Bold, Pragmatica" font-weight="700"><tspan x="0" y="0">Paradigma </tspan><tspan x="0" y="434">Indie</tspan></text>
</svg>
